<mxfile host="app.diagrams.net" agent="Mozilla/5.0 (Windows NT 10.0; Win64; x64) AppleWebKit/537.36 (KHTML, like Gecko) Chrome/130.0.0.0 Safari/537.36 Edg/130.0.0.0" version="24.7.14">
  <diagram name="Página-1" id="iXR54DhRc3VHNnKgWPOs">
    <mxGraphModel dx="828" dy="-503" grid="1" gridSize="10" guides="1" tooltips="1" connect="1" arrows="1" fold="1" page="1" pageScale="1" pageWidth="827" pageHeight="1169" math="0" shadow="0">
      <root>
        <mxCell id="0" />
        <mxCell id="1" parent="0" />
        <mxCell id="Cv3MLdO457S3XhwVmylq-1" value="alt" style="shape=umlFrame;whiteSpace=wrap;html=1;pointerEvents=0;" parent="1" vertex="1">
          <mxGeometry x="185" y="1405" width="611" height="344" as="geometry" />
        </mxCell>
        <mxCell id="Cv3MLdO457S3XhwVmylq-3" value="" style="endArrow=none;dashed=1;html=1;rounded=0;entryX=0.5;entryY=1;entryDx=0;entryDy=0;" parent="1" source="Cv3MLdO457S3XhwVmylq-15" target="Cv3MLdO457S3XhwVmylq-27" edge="1">
          <mxGeometry width="50" height="50" relative="1" as="geometry">
            <mxPoint x="264.52" y="1345" as="sourcePoint" />
            <mxPoint x="265" y="1329" as="targetPoint" />
          </mxGeometry>
        </mxCell>
        <mxCell id="Cv3MLdO457S3XhwVmylq-4" value="" style="endArrow=none;dashed=1;html=1;rounded=0;entryX=0.5;entryY=1;entryDx=0;entryDy=0;" parent="1" source="Cv3MLdO457S3XhwVmylq-30" target="Cv3MLdO457S3XhwVmylq-28" edge="1">
          <mxGeometry width="50" height="50" relative="1" as="geometry">
            <mxPoint x="384.62" y="1355" as="sourcePoint" />
            <mxPoint x="384.62" y="1305" as="targetPoint" />
          </mxGeometry>
        </mxCell>
        <mxCell id="Cv3MLdO457S3XhwVmylq-5" value="" style="endArrow=none;dashed=1;html=1;rounded=0;entryX=0.5;entryY=1;entryDx=0;entryDy=0;" parent="1" source="Cv3MLdO457S3XhwVmylq-10" target="Cv3MLdO457S3XhwVmylq-29" edge="1">
          <mxGeometry width="50" height="50" relative="1" as="geometry">
            <mxPoint x="509.73" y="1435" as="sourcePoint" />
            <mxPoint x="509.73" y="1295" as="targetPoint" />
          </mxGeometry>
        </mxCell>
        <mxCell id="Cv3MLdO457S3XhwVmylq-6" value="" style="endArrow=none;dashed=1;html=1;rounded=0;exitX=0.466;exitY=0.998;exitDx=0;exitDy=0;exitPerimeter=0;" parent="1" source="Cv3MLdO457S3XhwVmylq-7" target="Cv3MLdO457S3XhwVmylq-30" edge="1">
          <mxGeometry width="50" height="50" relative="1" as="geometry">
            <mxPoint x="386" y="1789" as="sourcePoint" />
            <mxPoint x="384.62" y="1565" as="targetPoint" />
          </mxGeometry>
        </mxCell>
        <mxCell id="Cv3MLdO457S3XhwVmylq-25" value="&lt;b&gt;validacion&amp;nbsp; == true&lt;/b&gt;" style="text;html=1;align=center;verticalAlign=middle;whiteSpace=wrap;rounded=0;" parent="1" vertex="1">
          <mxGeometry x="185" y="1440" width="75" height="30" as="geometry" />
        </mxCell>
        <mxCell id="Cv3MLdO457S3XhwVmylq-27" value="Compra" style="html=1;whiteSpace=wrap;" parent="1" vertex="1">
          <mxGeometry x="210" y="1279" width="110" height="50" as="geometry" />
        </mxCell>
        <mxCell id="Cv3MLdO457S3XhwVmylq-28" value="Usuario" style="html=1;whiteSpace=wrap;" parent="1" vertex="1">
          <mxGeometry x="330.5" y="1279" width="110" height="50" as="geometry" />
        </mxCell>
        <mxCell id="Cv3MLdO457S3XhwVmylq-29" value="Activo" style="html=1;whiteSpace=wrap;" parent="1" vertex="1">
          <mxGeometry x="450.5" y="1279" width="110" height="50" as="geometry" />
        </mxCell>
        <mxCell id="Cv3MLdO457S3XhwVmylq-30" value="" style="html=1;points=[[0,0,0,0,5],[0,1,0,0,-5],[1,0,0,0,5],[1,1,0,0,-5]];perimeter=orthogonalPerimeter;outlineConnect=0;targetShapes=umlLifeline;portConstraint=eastwest;newEdgeStyle={&quot;curved&quot;:0,&quot;rounded&quot;:0};" parent="1" vertex="1">
          <mxGeometry x="380.5" y="1419" width="10" height="160" as="geometry" />
        </mxCell>
        <mxCell id="Cv3MLdO457S3XhwVmylq-32" value="El Usuario desde la Vista de la aplicación ingresa los datos de la compra, se realiza la compra&lt;div&gt;y se actuali&lt;span style=&quot;background-color: initial;&quot;&gt;zan los datos del Usuario y el Stock.&lt;/span&gt;&lt;/div&gt;" style="text;html=1;align=center;verticalAlign=middle;resizable=0;points=[];autosize=1;strokeColor=none;fillColor=none;" parent="1" vertex="1">
          <mxGeometry x="114" y="1169" width="520" height="40" as="geometry" />
        </mxCell>
        <mxCell id="_f2GjBEuq_733GmIHMsE-1" value="operaciones.add(Operacion)" style="html=1;align=left;spacingLeft=2;endArrow=block;rounded=0;edgeStyle=orthogonalEdgeStyle;curved=0;rounded=0;" parent="1" edge="1">
          <mxGeometry relative="1" as="geometry">
            <mxPoint x="391" y="1498" as="sourcePoint" />
            <Array as="points">
              <mxPoint x="421" y="1498" />
              <mxPoint x="421" y="1528" />
            </Array>
            <mxPoint x="391" y="1528" as="targetPoint" />
            <mxPoint as="offset" />
          </mxGeometry>
        </mxCell>
        <mxCell id="_f2GjBEuq_733GmIHMsE-4" value="setSaldoTotal()" style="html=1;align=left;spacingLeft=2;endArrow=block;rounded=0;edgeStyle=orthogonalEdgeStyle;curved=0;rounded=0;" parent="1" edge="1">
          <mxGeometry relative="1" as="geometry">
            <mxPoint x="390" y="1536" as="sourcePoint" />
            <Array as="points">
              <mxPoint x="420" y="1536" />
              <mxPoint x="420" y="1566" />
            </Array>
            <mxPoint x="390" y="1566" as="targetPoint" />
          </mxGeometry>
        </mxCell>
        <mxCell id="_f2GjBEuq_733GmIHMsE-3" value="new Operacion(datosCompra)" style="html=1;verticalAlign=bottom;endArrow=block;curved=0;rounded=0;" parent="1" source="Cv3MLdO457S3XhwVmylq-30" target="Cv3MLdO457S3XhwVmylq-18" edge="1">
          <mxGeometry width="80" relative="1" as="geometry">
            <mxPoint x="390.5" y="1483.58" as="sourcePoint" />
            <mxPoint x="570" y="1480" as="targetPoint" />
          </mxGeometry>
        </mxCell>
        <mxCell id="Cv3MLdO457S3XhwVmylq-7" value="" style="swimlane;startSize=0;container=0;" parent="1" vertex="1">
          <mxGeometry y="1229" width="826" height="560" as="geometry" />
        </mxCell>
        <mxCell id="Cv3MLdO457S3XhwVmylq-9" value="actualizarActivo" style="html=1;verticalAlign=bottom;endArrow=block;curved=0;rounded=0;" parent="Cv3MLdO457S3XhwVmylq-7" edge="1">
          <mxGeometry width="80" relative="1" as="geometry">
            <mxPoint x="390.5" y="209.99999999999994" as="sourcePoint" />
            <mxPoint x="500.5" y="210.0000000000004" as="targetPoint" />
          </mxGeometry>
        </mxCell>
        <mxCell id="Cv3MLdO457S3XhwVmylq-10" value="" style="html=1;points=[[0,0,0,0,5],[0,1,0,0,-5],[1,0,0,0,5],[1,1,0,0,-5]];perimeter=orthogonalPerimeter;outlineConnect=0;targetShapes=umlLifeline;portConstraint=eastwest;newEdgeStyle={&quot;curved&quot;:0,&quot;rounded&quot;:0};" parent="Cv3MLdO457S3XhwVmylq-7" vertex="1">
          <mxGeometry x="500.5" y="200" width="10" height="30" as="geometry" />
        </mxCell>
        <mxCell id="Cv3MLdO457S3XhwVmylq-11" value="" style="endArrow=none;dashed=1;html=1;rounded=0;exitX=0.611;exitY=0.995;exitDx=0;exitDy=0;exitPerimeter=0;" parent="Cv3MLdO457S3XhwVmylq-7" source="Cv3MLdO457S3XhwVmylq-7" target="Cv3MLdO457S3XhwVmylq-10" edge="1">
          <mxGeometry width="50" height="50" relative="1" as="geometry">
            <mxPoint x="505.12" y="566" as="sourcePoint" />
            <mxPoint x="505.12" y="346" as="targetPoint" />
          </mxGeometry>
        </mxCell>
        <mxCell id="Cv3MLdO457S3XhwVmylq-13" value="validarDatos" style="html=1;align=left;spacingLeft=2;endArrow=block;rounded=0;edgeStyle=orthogonalEdgeStyle;curved=0;rounded=0;" parent="Cv3MLdO457S3XhwVmylq-7" target="Cv3MLdO457S3XhwVmylq-15" edge="1">
          <mxGeometry relative="1" as="geometry">
            <mxPoint x="270" y="140" as="sourcePoint" />
            <Array as="points">
              <mxPoint x="300" y="140" />
              <mxPoint x="300" y="170" />
            </Array>
            <mxPoint x="275" y="170" as="targetPoint" />
          </mxGeometry>
        </mxCell>
        <mxCell id="Cv3MLdO457S3XhwVmylq-14" value="&lt;b&gt;validacion == false&lt;/b&gt;" style="text;html=1;align=center;verticalAlign=middle;whiteSpace=wrap;rounded=0;" parent="Cv3MLdO457S3XhwVmylq-7" vertex="1">
          <mxGeometry x="185" y="450" width="70" height="30" as="geometry" />
        </mxCell>
        <mxCell id="Cv3MLdO457S3XhwVmylq-15" value="" style="html=1;points=[[0,0,0,0,5],[0,1,0,0,-5],[1,0,0,0,5],[1,1,0,0,-5]];perimeter=orthogonalPerimeter;outlineConnect=0;targetShapes=umlLifeline;portConstraint=eastwest;newEdgeStyle={&quot;curved&quot;:0,&quot;rounded&quot;:0};" parent="Cv3MLdO457S3XhwVmylq-7" vertex="1">
          <mxGeometry x="260" y="116" width="10" height="414" as="geometry" />
        </mxCell>
        <mxCell id="Cv3MLdO457S3XhwVmylq-16" value="" style="endArrow=none;dashed=1;html=1;rounded=0;exitX=0.322;exitY=1.004;exitDx=0;exitDy=0;exitPerimeter=0;" parent="Cv3MLdO457S3XhwVmylq-7" source="Cv3MLdO457S3XhwVmylq-7" target="Cv3MLdO457S3XhwVmylq-15" edge="1">
          <mxGeometry width="50" height="50" relative="1" as="geometry">
            <mxPoint x="263.62" y="703" as="sourcePoint" />
            <mxPoint x="263.62" y="483" as="targetPoint" />
          </mxGeometry>
        </mxCell>
        <mxCell id="Cv3MLdO457S3XhwVmylq-17" value="" style="endArrow=none;dashed=1;html=1;strokeWidth=2;rounded=0;exitX=-0.001;exitY=0.666;exitDx=0;exitDy=0;exitPerimeter=0;entryX=1;entryY=0.767;entryDx=0;entryDy=0;entryPerimeter=0;" parent="Cv3MLdO457S3XhwVmylq-7" target="Cv3MLdO457S3XhwVmylq-1" edge="1">
          <mxGeometry width="50" height="50" relative="1" as="geometry">
            <mxPoint x="184.99500000000023" y="440.36000000000047" as="sourcePoint" />
            <mxPoint x="699.99" y="440" as="targetPoint" />
          </mxGeometry>
        </mxCell>
        <mxCell id="Cv3MLdO457S3XhwVmylq-18" value="Operacion" style="html=1;whiteSpace=wrap;" parent="Cv3MLdO457S3XhwVmylq-7" vertex="1">
          <mxGeometry x="570" y="221" width="110" height="50" as="geometry" />
        </mxCell>
        <mxCell id="Cv3MLdO457S3XhwVmylq-20" value="actualizarStock" style="html=1;verticalAlign=bottom;endArrow=block;curved=0;rounded=0;" parent="Cv3MLdO457S3XhwVmylq-7" target="_f2GjBEuq_733GmIHMsE-24" edge="1">
          <mxGeometry width="80" relative="1" as="geometry">
            <mxPoint x="270" y="379.9999999999999" as="sourcePoint" />
            <mxPoint x="620.0000000000002" y="379.9999999999999" as="targetPoint" />
          </mxGeometry>
        </mxCell>
        <mxCell id="_f2GjBEuq_733GmIHMsE-23" value="Stock" style="html=1;whiteSpace=wrap;" parent="Cv3MLdO457S3XhwVmylq-7" vertex="1">
          <mxGeometry x="686" y="50" width="110" height="50" as="geometry" />
        </mxCell>
        <mxCell id="_f2GjBEuq_733GmIHMsE-24" value="" style="html=1;points=[[0,0,0,0,5],[0,1,0,0,-5],[1,0,0,0,5],[1,1,0,0,-5]];perimeter=orthogonalPerimeter;outlineConnect=0;targetShapes=umlLifeline;portConstraint=eastwest;newEdgeStyle={&quot;curved&quot;:0,&quot;rounded&quot;:0};" parent="Cv3MLdO457S3XhwVmylq-7" vertex="1">
          <mxGeometry x="736" y="370" width="10" height="40" as="geometry" />
        </mxCell>
        <mxCell id="_f2GjBEuq_733GmIHMsE-25" value="" style="endArrow=none;dashed=1;html=1;rounded=0;" parent="Cv3MLdO457S3XhwVmylq-7" source="_f2GjBEuq_733GmIHMsE-24" target="_f2GjBEuq_733GmIHMsE-23" edge="1">
          <mxGeometry width="50" height="50" relative="1" as="geometry">
            <mxPoint x="686" y="290" as="sourcePoint" />
            <mxPoint x="686" y="140" as="targetPoint" />
          </mxGeometry>
        </mxCell>
        <mxCell id="_f2GjBEuq_733GmIHMsE-26" value="" style="endArrow=none;dashed=1;html=1;rounded=0;exitX=0.897;exitY=1.003;exitDx=0;exitDy=0;exitPerimeter=0;" parent="Cv3MLdO457S3XhwVmylq-7" source="Cv3MLdO457S3XhwVmylq-7" target="_f2GjBEuq_733GmIHMsE-24" edge="1">
          <mxGeometry width="50" height="50" relative="1" as="geometry">
            <mxPoint x="736" y="540" as="sourcePoint" />
            <mxPoint x="736" y="270" as="targetPoint" />
          </mxGeometry>
        </mxCell>
        <mxCell id="_f2GjBEuq_733GmIHMsE-27" value="actualizarStock" style="html=1;align=left;spacingLeft=2;endArrow=block;rounded=0;edgeStyle=orthogonalEdgeStyle;curved=0;rounded=0;" parent="Cv3MLdO457S3XhwVmylq-7" edge="1">
          <mxGeometry relative="1" as="geometry">
            <mxPoint x="746" y="374.99" as="sourcePoint" />
            <Array as="points">
              <mxPoint x="776" y="374.99" />
              <mxPoint x="776" y="404.99" />
            </Array>
            <mxPoint x="746" y="404.99" as="targetPoint" />
          </mxGeometry>
        </mxCell>
        <mxCell id="Cv3MLdO457S3XhwVmylq-12" value="actualizarTransaccion(datosCompra)" style="html=1;verticalAlign=bottom;endArrow=block;curved=0;rounded=0;" parent="Cv3MLdO457S3XhwVmylq-7" edge="1">
          <mxGeometry width="80" relative="1" as="geometry">
            <mxPoint x="269.5" y="200" as="sourcePoint" />
            <mxPoint x="380.5" y="200" as="targetPoint" />
          </mxGeometry>
        </mxCell>
        <mxCell id="lkuLZSTWdey9bUEyCvDv-1" value="comprar(datosCompra)" style="html=1;verticalAlign=bottom;endArrow=block;curved=0;rounded=0;" edge="1" parent="Cv3MLdO457S3XhwVmylq-7">
          <mxGeometry width="80" relative="1" as="geometry">
            <mxPoint x="149" y="131" as="sourcePoint" />
            <mxPoint x="260" y="131" as="targetPoint" />
          </mxGeometry>
        </mxCell>
      </root>
    </mxGraphModel>
  </diagram>
</mxfile>
